<svg width="50" height="51" viewBox="0 0 50 51" fill="none" xmlns="http://www.w3.org/2000/svg">
<g clip-path="url(#clip0_1_21)">
<path d="M25 50.5C25 50.5 43.75 32.7313 43.75 19.25C43.75 14.2772 41.7746 9.50805 38.2583 5.99175C34.7419 2.47544 29.9728 0.5 25 0.5C20.0272 0.5 15.2581 2.47544 11.7417 5.99175C8.22544 9.50805 6.25 14.2772 6.25 19.25C6.25 32.7313 25 50.5 25 50.5ZM25 28.625C22.5136 28.625 20.129 27.6373 18.3709 25.8791C16.6127 24.121 15.625 21.7364 15.625 19.25C15.625 16.7636 16.6127 14.379 18.3709 12.6209C20.129 10.8627 22.5136 9.875 25 9.875C27.4864 9.875 29.871 10.8627 31.6291 12.6209C33.3873 14.379 34.375 16.7636 34.375 19.25C34.375 21.7364 33.3873 24.121 31.6291 25.8791C29.871 27.6373 27.4864 28.625 25 28.625Z" fill="#444444"/>
</g>
<defs>
<clipPath id="clip0_1_21">
<rect width="50" height="50" fill="white" transform="translate(0 0.5)"/>
</clipPath>
</defs>
</svg>
