<svg width="800" height="600" xmlns="http://www.w3.org/2000/svg">
 <g>
  <title>Layer 1</title>
  <line stroke-linecap="undefined" stroke-linejoin="undefined" id="svg_3" y2="0" x2="0" y1="0" x1="0" stroke="#000" fill="none"/>
  <line stroke-linecap="undefined" stroke-linejoin="undefined" id="svg_2" y2="340" x2="63.20104" y1="63.00084" x1="63.20104" stroke="#000" fill="none"/>
  <line stroke="#000" stroke-linecap="undefined" stroke-linejoin="undefined" id="svg_5" y2="63" x2="350.00456" y1="63" x1="63" fill="none"/>
  <line stroke-linecap="undefined" stroke-linejoin="undefined" id="svg_6" y2="186.41761" x2="349.99999" y1="63" x1="349.99999" stroke="#000" fill="none"/>
  <line stroke-linecap="undefined" stroke-linejoin="undefined" id="svg_7" y2="186" x2="473.48793" y1="186" x1="350.29585" stroke="#000" fill="none"/>
  <line stroke-linecap="undefined" stroke-linejoin="undefined" id="svg_8" y2="151.27943" x2="473" y1="185.68048" x1="473" stroke="#000" fill="none"/>
  <line stroke-linecap="undefined" stroke-linejoin="undefined" id="svg_9" y2="151.64516" x2="732.37497" y1="151.64516" x1="472.25934" stroke="#000" fill="none"/>
  <line stroke-linecap="undefined" stroke-linejoin="undefined" id="svg_10" y2="340" x2="732.25973" y1="152" x1="732.25973" stroke="#000" fill="none"/>
  <line stroke-linecap="undefined" stroke-linejoin="undefined" id="svg_11" y2="340" x2="732" y1="340" x1="63.22647" stroke="#000" fill="none"/>
  <line stroke-linecap="undefined" stroke-linejoin="undefined" id="svg_12" y2="100" x2="223.87187" y1="63.48441" x1="223.87187" stroke="#000" fill="none"/>
  <line stroke-linecap="undefined" stroke-linejoin="undefined" id="svg_13" y2="100" x2="279.92619" y1="100" x1="224" stroke="#000" fill="none"/>
  <line stroke-linecap="undefined" stroke-linejoin="undefined" id="svg_14" y2="100" x2="350.09039" y1="100" x1="299.35586" stroke="#000" fill="none"/>
  <line stroke-linecap="undefined" stroke-linejoin="undefined" id="svg_4" y2="140" x2="223.84424" y1="140" x1="349.60938" stroke="#000" fill="none"/>
  <line stroke-linecap="undefined" stroke-linejoin="undefined" id="svg_15" y2="186" x2="224" y1="186" x1="349.99999" stroke="#000" fill="none"/>
  <line stroke-linecap="undefined" stroke-linejoin="undefined" id="svg_16" y2="115" x2="223.80325" y1="99.56451" x1="223.80325" stroke="#000" fill="none"/>
  <line stroke-linecap="undefined" stroke-linejoin="undefined" id="svg_17" y2="127" x2="224" y1="140" x1="224" stroke="#000" fill="none"/>
  <line stroke-linecap="undefined" stroke-linejoin="undefined" id="svg_18" y2="158" x2="224" y1="140" x1="224" stroke="#000" fill="none"/>
  <line stroke-linecap="undefined" stroke-linejoin="undefined" id="svg_19" y2="186" x2="223.87671" y1="168" x1="223.87671" stroke="#000" fill="none"/>
  <line stroke-linecap="undefined" stroke-linejoin="undefined" id="svg_20" y2="81.64062" x2="162.9527" y1="63.06133" x1="162.9527" stroke="#000" fill="none"/>
  <line stroke-linecap="undefined" stroke-linejoin="undefined" id="svg_21" y2="158" x2="163.49915" y1="94.20897" x1="163.49915" stroke="#000" fill="none"/>
  <line stroke-linecap="undefined" stroke-linejoin="undefined" id="svg_22" y2="140" x2="62.92848" y1="140" x1="162.9527" stroke="#000" fill="none"/>
  <line stroke-linecap="undefined" stroke-linejoin="undefined" id="svg_24" y2="235.19305" x2="370.41813" y1="235.19305" x1="275" stroke="#000" fill="none"/>
  <line stroke-linecap="undefined" stroke-linejoin="undefined" id="svg_25" y2="202.41486" x2="274.97493" y1="185.46611" x1="274.97493" stroke="#000" fill="none"/>
  <line stroke-linecap="undefined" stroke-linejoin="undefined" id="svg_26" y2="235.32118" x2="274.97493" y1="216.61375" x1="274.97493" stroke="#000" fill="none"/>
  <line stroke-linecap="undefined" stroke-linejoin="undefined" id="svg_27" y2="235.19305" x2="370" y1="186.01256" x1="370" stroke="#000" fill="none"/>
  <line stroke-linecap="undefined" stroke-linejoin="undefined" id="svg_28" y2="235.33836" x2="472.78979" y1="184.91966" x1="472.78979" stroke="#000" fill="none"/>
  <line stroke-linecap="undefined" stroke-linejoin="undefined" id="svg_29" y2="235" x2="500.1138" y1="234.6466" x1="401.7513" stroke="#000" fill="none"/>
  <line stroke-linecap="undefined" stroke-linejoin="undefined" id="svg_30" y2="235.19305" x2="386.45071" y1="235.19305" x1="370.05721" stroke="#000" fill="none"/>
  <line stroke-linecap="undefined" stroke-linejoin="undefined" id="svg_31" y2="184" x2="163" y1="170.76916" x1="163" stroke="#000" fill="none"/>
  <line stroke-linecap="undefined" stroke-linejoin="undefined" id="svg_32" y2="184" x2="163" y1="184" x1="63.18671" stroke="#000" fill="none"/>
  <line stroke-linecap="undefined" stroke-linejoin="undefined" id="svg_33" y2="245.00627" x2="163" y1="184" x1="163" stroke="#000" fill="none"/>
  <line stroke-linecap="undefined" stroke-linejoin="undefined" id="svg_34" y2="290" x2="162.63725" y1="258.13179" x1="162.63725" stroke="#000" fill="none"/>
  <line stroke-linecap="undefined" stroke-linejoin="undefined" id="svg_35" y2="340" x2="162.63725" y1="304.83508" x1="162.63725" stroke="#000" fill="none"/>
  <line stroke-linecap="undefined" stroke-linejoin="undefined" id="svg_36" y2="273.21723" x2="63.20956" y1="273.21723" x1="162.62196" stroke="#000" fill="none"/>
  <line stroke-linecap="undefined" stroke-linejoin="undefined" id="svg_37" y2="290" x2="223.44445" y1="273" x1="223.44445" stroke="#000" fill="none"/>
  <line stroke-linecap="undefined" stroke-linejoin="undefined" id="svg_38" y2="340" x2="224" y1="304.76501" x1="224" stroke="#000" fill="none"/>
  <line stroke-linecap="undefined" stroke-linejoin="undefined" id="svg_39" y2="339.52671" x2="473" y1="273" x1="473" stroke="#000" fill="none"/>
  <line stroke-linecap="undefined" stroke-linejoin="undefined" id="svg_40" y2="272.7766" x2="473.3973" y1="272.7766" x1="452.22055" stroke="#000" fill="none"/>
  <line stroke-linecap="undefined" stroke-linejoin="undefined" id="svg_41" y2="272.7766" x2="430.55691" y1="272.7766" x1="223" stroke="#000" fill="none"/>
  <line stroke-linecap="undefined" stroke-linejoin="undefined" id="svg_42" y2="340.01935" x2="318.33192" y1="272.7766" x1="318.33192" stroke="#000" fill="none"/>
  <line stroke-linecap="undefined" stroke-linejoin="undefined" id="svg_43" y2="272.7766" x2="511.25609" y1="272.7766" x1="473.33162" stroke="#000" fill="none"/>
  <line stroke-linecap="undefined" stroke-linejoin="undefined" id="svg_44" y2="273" x2="616.1542" y1="273" x1="530.55373" stroke="#000" fill="none"/>
  <line stroke-linecap="undefined" stroke-linejoin="undefined" id="svg_45" y2="273" x2="732.24629" y1="273" x1="638.33129" stroke="#000" fill="none"/>
  <line stroke-linecap="undefined" stroke-linejoin="undefined" id="svg_46" y2="340" x2="561.66478" y1="272.7766" x1="561.66478" stroke="#000" fill="none"/>
  <line stroke-linecap="undefined" stroke-linejoin="undefined" id="svg_47" y2="235" x2="594.99805" y1="151.66573" x1="594.99805" stroke="#000" fill="none"/>
  <line stroke-linecap="undefined" stroke-linejoin="undefined" id="svg_48" y2="235" x2="607" y1="235" x1="521.1093" stroke="#000" fill="none"/>
  <line stroke-linecap="undefined" stroke-linejoin="undefined" id="svg_49" y2="235" x2="677.77566" y1="151.66573" x1="677.77566" stroke="#000" fill="none"/>
  <line stroke-linecap="undefined" stroke-linejoin="undefined" id="svg_50" y2="235" x2="732.23207" y1="235" x1="719.44225" stroke="#000" fill="none"/>
  <line stroke-linecap="undefined" stroke-linejoin="undefined" id="svg_51" y2="234.9989" x2="643" y1="234.9989" x1="620" stroke="#000" fill="none"/>
  <line stroke-linecap="undefined" stroke-linejoin="undefined" id="svg_52" y2="235" x2="697.24184" y1="235" x1="660" stroke="#000" fill="none"/>
  <line stroke-linecap="undefined" stroke-linejoin="undefined" id="svg_54" y2="198" x2="630" y1="234.9989" x1="630" stroke="#000" fill="none"/>
  <line stroke-linecap="undefined" stroke-linejoin="undefined" id="svg_55" y2="160" x2="639.99796" y1="151.66573" x1="639.99796" stroke="#000" fill="none"/>
  <line stroke-linecap="undefined" stroke-linejoin="undefined" id="svg_56" y2="183" x2="640" y1="170" x1="640" stroke="#000" fill="none"/>
  <line stroke-linecap="undefined" stroke-linejoin="undefined" id="svg_57" y2="223" x2="643" y1="223" x1="630" stroke="#000" fill="none"/>
  <line stroke-linecap="undefined" stroke-linejoin="undefined" id="svg_58" y2="223" x2="677.77566" y1="223" x1="657" stroke="#000" fill="none"/>
  <line stroke-linecap="undefined" stroke-linejoin="undefined" id="svg_59" y2="175" x2="677.9753" y1="175" x1="639.99796" stroke="#000" fill="none"/>
  <line stroke-linecap="undefined" stroke-linejoin="undefined" id="svg_60" y2="198" x2="677.81241" y1="198" x1="630" stroke="#000" fill="none"/>
  <g id="svg_70">
   <rect id="svg_62" height="36" width="75.98018" y="192" x="282" stroke="#000" fill="none"/>
   <line stroke-linecap="undefined" stroke-linejoin="undefined" id="svg_63" y2="210" x2="358.35652" y1="210" x1="282.35104" stroke="#000" fill="none"/>
   <line stroke-linecap="undefined" stroke-linejoin="undefined" id="svg_64" y2="227.73255" x2="290" y1="192.00952" x1="290" stroke="#000" fill="none"/>
   <line stroke-linecap="undefined" stroke-linejoin="undefined" id="svg_65" y2="227.99212" x2="298" y1="192" x1="298" stroke="#000" fill="none"/>
   <line stroke-linecap="undefined" stroke-linejoin="undefined" id="svg_66" y2="227.76269" x2="306" y1="191.999" x1="306" stroke="#000" fill="none"/>
   <line stroke-linecap="undefined" stroke-linejoin="undefined" id="svg_67" y2="227.68735" x2="314" y1="191.80292" x1="314" stroke="#000" fill="none"/>
   <line stroke-linecap="undefined" stroke-linejoin="undefined" id="svg_68" y2="227.77612" x2="322" y1="191.999" x1="322" stroke="#000" fill="none"/>
   <line stroke-linecap="undefined" stroke-linejoin="undefined" id="svg_69" y2="228.08588" x2="340" y1="191.999" x1="340" stroke="#000" fill="none"/>
  </g>
  <g transform="rotate(-90 705.725 193.138)" id="svg_79">
   <rect id="svg_71" height="36" width="75.98018" y="175.19334" x="667.54713" stroke="#000" fill="none"/>
   <line stroke-linecap="undefined" stroke-linejoin="undefined" id="svg_72" y2="193.19334" x2="743.90365" y1="193.19334" x1="667.89817" stroke="#000" fill="none"/>
   <line stroke-linecap="undefined" stroke-linejoin="undefined" id="svg_73" y2="210.92589" x2="675.54713" y1="175.20286" x1="675.54713" stroke="#000" fill="none"/>
   <line stroke-linecap="undefined" stroke-linejoin="undefined" id="svg_74" y2="211.18545" x2="683.54713" y1="175.19334" x1="683.54713" stroke="#000" fill="none"/>
   <line stroke-linecap="undefined" stroke-linejoin="undefined" id="svg_75" y2="210.95602" x2="691.54713" y1="175.19233" x1="691.54713" stroke="#000" fill="none"/>
   <line stroke-linecap="undefined" stroke-linejoin="undefined" id="svg_76" y2="210.88068" x2="699.54713" y1="174.99626" x1="699.54713" stroke="#000" fill="none"/>
   <line stroke-linecap="undefined" stroke-linejoin="undefined" id="svg_77" y2="210.96946" x2="707.54713" y1="175.19233" x1="707.54713" stroke="#000" fill="none"/>
   <line stroke-linecap="undefined" stroke-linejoin="undefined" id="svg_78" y2="211.27922" x2="725.54713" y1="175.19233" x1="725.54713" stroke="#000" fill="none"/>
  </g>
 </g>

</svg>