<svg width="22" height="22" viewBox="0 0 22 22" fill="none" xmlns="http://www.w3.org/2000/svg">
<path d="M0.518857 0.518735C0.663999 0.373224 0.836423 0.257778 1.02625 0.179007C1.21608 0.100237 1.41958 0.0596924 1.62511 0.0596924C1.83063 0.0596924 2.03413 0.100237 2.22396 0.179007C2.41379 0.257778 2.58621 0.373224 2.73136 0.518735L11.0001 8.79061L19.2689 0.518735C19.4141 0.37346 19.5866 0.258221 19.7764 0.179599C19.9662 0.100977 20.1697 0.0605105 20.3751 0.0605105C20.5806 0.0605105 20.784 0.100977 20.9738 0.179599C21.1636 0.258221 21.3361 0.37346 21.4814 0.518735C21.6266 0.664009 21.7419 0.836475 21.8205 1.02629C21.8991 1.2161 21.9396 1.41954 21.9396 1.62498C21.9396 1.83043 21.8991 2.03387 21.8205 2.22368C21.7419 2.41349 21.6266 2.58596 21.4814 2.73124L13.2095 11L21.4814 19.2687C21.6266 19.414 21.7419 19.5865 21.8205 19.7763C21.8991 19.9661 21.9396 20.1695 21.9396 20.375C21.9396 20.5804 21.8991 20.7839 21.8205 20.9737C21.7419 21.1635 21.6266 21.336 21.4814 21.4812C21.3361 21.6265 21.1636 21.7417 20.9738 21.8204C20.784 21.899 20.5806 21.9395 20.3751 21.9395C20.1697 21.9395 19.9662 21.899 19.7764 21.8204C19.5866 21.7417 19.4141 21.6265 19.2689 21.4812L11.0001 13.2094L2.73136 21.4812C2.58608 21.6265 2.41362 21.7417 2.22381 21.8204C2.034 21.899 1.83056 21.9395 1.62511 21.9395C1.41966 21.9395 1.21622 21.899 1.02641 21.8204C0.836597 21.7417 0.664131 21.6265 0.518857 21.4812C0.373582 21.336 0.258343 21.1635 0.179721 20.9737C0.101099 20.7839 0.0606325 20.5804 0.0606325 20.375C0.0606325 20.1695 0.101099 19.9661 0.179721 19.7763C0.258343 19.5865 0.373582 19.414 0.518857 19.2687L8.79073 11L0.518857 2.73124C0.373347 2.58609 0.2579 2.41367 0.17913 2.22384C0.100359 2.03401 0.0598145 1.83051 0.0598145 1.62498C0.0598145 1.41946 0.100359 1.21596 0.17913 1.02613C0.2579 0.836301 0.373347 0.663877 0.518857 0.518735Z" fill="#444444"/>
</svg>
