<svg width="36" height="20" viewBox="0 0 36 20" fill="none" xmlns="http://www.w3.org/2000/svg">
<path fill-rule="evenodd" clip-rule="evenodd" d="M17.0265 0.776485C17.1543 0.648436 17.306 0.546843 17.473 0.477525C17.6401 0.408208 17.8192 0.372528 18 0.372528C18.1809 0.372528 18.36 0.408208 18.527 0.477525C18.6941 0.546843 18.8458 0.648436 18.9735 0.776485L35.4735 17.2765C35.7317 17.5347 35.8768 17.8849 35.8768 18.25C35.8768 18.6151 35.7317 18.9653 35.4735 19.2235C35.2153 19.4817 34.8652 19.6267 34.5 19.6267C34.1349 19.6267 33.7847 19.4817 33.5265 19.2235L18 3.69423L2.47353 19.2235C2.21534 19.4817 1.86516 19.6267 1.50003 19.6267C1.13489 19.6267 0.784716 19.4817 0.526528 19.2235C0.26834 18.9653 0.123291 18.6151 0.123291 18.25C0.123291 17.8849 0.26834 17.5347 0.526528 17.2765L17.0265 0.776485Z" fill="#444444"/>
</svg>
